<?xml version="1.0" encoding="UTF-8"?>
<!DOCTYPE svg PUBLIC "-//W3C//DTD SVG 1.1//EN" "http://www.w3.org/Graphics/SVG/1.1/DTD/svg11.dtd">
<!-- Creator: CorelDRAW X7 -->
<svg xmlns="http://www.w3.org/2000/svg" xml:space="preserve" width="2500px" height="1113px" version="1.1" style="shape-rendering:geometricPrecision; text-rendering:geometricPrecision; image-rendering:optimizeQuality; fill-rule:evenodd; clip-rule:evenodd"
viewBox="0 0 2500 1113"
 xmlns:xlink="http://www.w3.org/1999/xlink">
 <defs>
  <style type="text/css">
   <![CDATA[
    .fil5 {fill:#332C2B}
    .fil3 {fill:#FFF000}
    .fil0 {fill:#F08519}
    .fil1 {fill:#F1A526}
    .fil2 {fill:#F6CF23}
    .fil4 {fill:#00A2E9}
   ]]>
  </style>
 </defs>
 <g id="Layer_x0020_1">
  <metadata id="CorelCorpID_0Corel-Layer"/>
  <path class="fil0" d="M169 479c30,0 54,-25 54,-54 0,-30 -24,-55 -54,-55 -30,0 -54,25 -54,55 0,29 24,54 54,54z"/>
  <path class="fil1" d="M369 549c40,0 73,-33 73,-73 0,-40 -33,-73 -73,-73 -40,0 -73,33 -73,73 0,40 33,73 73,73z"/>
  <path class="fil2" d="M617 495c64,0 116,-52 116,-115 0,-64 -52,-115 -116,-115 -63,0 -115,51 -115,115 0,63 52,115 115,115z"/>
  <path class="fil3" d="M908 329c90,0 164,-74 164,-165 0,-90 -74,-164 -164,-164 -91,0 -164,74 -164,164 0,91 73,165 164,165z"/>
  <path class="fil4" d="M0 468c300,233 553,208 862,46 27,43 59,94 86,137 -607,199 -804,-10 -948,-183z"/>
  <path class="fil4" d="M1130 888c-77,-132 -153,-264 -230,-396 801,-369 1547,-37 1600,40 -521,-158 -930,-176 -1325,-1 -4,1 -7,4 -8,8l-4 56 -33 293z"/>
  <path class="fil4" d="M1350 1097l0 -55 16 0 9 38 10 -38 16 0 0 55 -10 0 0 -43 -11 43 -10 0 -10 -43 0 43 -10 0zm83 -12l0 0 10 1c-1,4 -3,7 -6,9 -2,2 -6,3 -10,3 -7,0 -12,-2 -15,-7 -2,-3 -4,-8 -4,-13 0,-7 2,-12 5,-16 4,-3 8,-5 13,-5 6,0 10,2 13,5 4,4 5,10 5,18l-25 0c0,3 1,6 2,8 2,1 4,2 6,2 2,0 3,0 4,-1 1,-1 2,-2 2,-4zm1 -11l0 0c0,-3 -1,-5 -2,-7 -2,-2 -3,-2 -6,-2 -2,0 -4,1 -5,2 -1,2 -2,4 -2,7l15 0zm28 23l0 0 -10 0 0 -40 9 0 0 6c2,-3 3,-4 4,-5 2,-1 3,-1 5,-1 2,0 4,0 7,2l-4 9c-1,-1 -3,-2 -4,-2 -2,0 -3,0 -4,1 -1,1 -2,3 -2,5 -1,2 -1,6 -1,13l0 12zm26 -27l0 0 -9 -2c1,-4 3,-7 6,-9 2,-1 6,-2 11,-2 4,0 8,0 10,1 2,1 4,3 4,5 1,1 2,4 2,9l0 12c0,4 0,6 0,8 0,1 1,3 2,5l-10 0c0,-1 -1,-2 -1,-3 0,-1 0,-1 0,-1 -2,2 -4,3 -6,4 -2,1 -4,1 -6,1 -4,0 -7,-1 -9,-3 -3,-2 -4,-5 -4,-9 0,-2 1,-4 2,-6 1,-1 2,-3 4,-4 2,-1 5,-1 8,-2 5,-1 8,-2 10,-3l0 -1c0,-2 -1,-3 -2,-4 -1,-1 -2,-1 -5,-1 -2,0 -3,0 -4,1 -1,1 -2,2 -3,4zm14 8l0 0c-1,1 -3,1 -6,2 -3,0 -5,1 -6,2 -1,1 -2,2 -2,3 0,2 1,3 2,4 1,1 2,2 4,2 2,0 3,-1 5,-2 1,-1 2,-2 2,-4 1,-1 1,-2 1,-5l0 -2zm20 -26l0 0 0 -10 10 0 0 10 -10 0zm0 45l0 0 0 -40 10 0 0 40 -10 0zm30 -55l0 0 0 21c3,-4 7,-6 12,-6 2,0 4,0 6,1 2,1 3,2 4,3 1,2 2,3 2,5 1,2 1,4 1,8l0 23 -10 0 0 -21c0,-4 0,-7 -1,-8 0,-1 -1,-2 -2,-2 -1,-1 -2,-1 -3,-1 -2,0 -4,0 -5,1 -1,1 -2,2 -3,4 -1,1 -1,4 -1,7l0 20 -10 0 0 -55 10 0zm56 55l0 0 0 -55 10 0 0 25 22 -25 14 0 -20 22 21 33 -14 0 -14 -26 -9 10 0 16 -10 0zm75 -12l0 0 10 1c-1,4 -4,7 -6,9 -3,2 -7,3 -11,3 -6,0 -11,-2 -15,-7 -2,-3 -3,-8 -3,-13 0,-7 1,-12 5,-16 3,-3 7,-5 12,-5 6,0 10,2 14,5 3,4 4,10 4,18l-25 0c0,3 1,6 3,8 1,1 3,2 5,2 2,0 3,0 4,-1 1,-1 2,-2 3,-4zm0 -11l0 0c0,-3 -1,-5 -2,-7 -1,-2 -3,-2 -5,-2 -2,0 -4,1 -6,2 -1,2 -2,4 -2,7l15 0zm19 23l0 0 0 -55 10 0 0 55 -10 0zm45 0l0 0 0 -6c-1,2 -3,4 -5,5 -3,1 -5,2 -7,2 -3,0 -5,-1 -7,-2 -2,-1 -4,-3 -5,-5 -1,-2 -1,-5 -1,-8l0 -26 10 0 0 19c0,5 0,9 0,10 1,1 2,2 3,3 0,1 2,1 3,1 2,0 4,0 5,-1 1,-1 2,-3 3,-4 0,-2 0,-5 0,-11l0 -17 11 0 0 40 -10 0zm27 -27l0 0 -9 -2c1,-4 3,-7 6,-9 2,-1 6,-2 11,-2 4,0 8,0 10,1 2,1 4,3 5,5 0,1 1,4 1,9l0 12c0,4 0,6 0,8 1,1 1,3 2,5l-10 0c0,-1 -1,-2 -1,-3 0,-1 0,-1 0,-1 -2,2 -4,3 -6,4 -2,1 -4,1 -6,1 -4,0 -7,-1 -9,-3 -3,-2 -4,-5 -4,-9 0,-2 1,-4 2,-6 1,-1 2,-3 4,-4 2,-1 5,-1 8,-2 5,-1 8,-2 10,-3l0 -1c0,-2 -1,-3 -1,-4 -1,-1 -3,-1 -6,-1 -2,0 -3,0 -4,1 -1,1 -2,2 -3,4zm14 8l0 0c-1,1 -3,1 -6,2 -3,0 -5,1 -6,2 -1,1 -2,2 -2,3 0,2 1,3 2,4 1,1 2,2 4,2 2,0 3,-1 5,-2 1,-1 2,-2 3,-4 0,-1 0,-2 0,-5l0 -2zm29 19l0 0 -10 0 0 -40 10 0 0 6c1,-3 3,-4 4,-5 1,-1 3,-1 4,-1 3,0 5,0 7,2l-3 9c-2,-1 -3,-2 -5,-2 -1,0 -2,0 -3,1 -1,1 -2,3 -3,5 0,2 -1,6 -1,13l0 12zm18 3l0 0 12 1c0,1 1,2 1,3 1,1 3,1 5,1 3,0 4,0 6,-1 1,-1 1,-2 2,-3 0,-1 0,-2 0,-5l0 -5c-3,4 -7,6 -11,6 -5,0 -9,-2 -12,-7 -3,-3 -4,-8 -4,-13 0,-7 2,-12 5,-15 3,-4 7,-5 11,-5 5,0 9,2 12,6l0 -6 9 0 0 36c0,5 0,8 -1,10 0,3 -2,5 -3,6 -1,1 -3,2 -5,3 -2,1 -5,1 -9,1 -6,0 -11,-1 -14,-3 -2,-3 -4,-6 -4,-9 0,0 0,-1 0,-1zm10 -24l0 0c0,5 0,8 2,10 1,2 3,3 6,3 2,0 4,-1 6,-3 2,-2 2,-5 2,-9 0,-4 0,-7 -2,-9 -2,-2 -4,-3 -6,-3 -3,0 -5,1 -6,3 -2,2 -2,4 -2,8zm44 -6l0 0 -9 -2c1,-4 3,-7 5,-9 3,-1 6,-2 11,-2 5,0 8,0 10,1 3,1 4,3 5,5 1,1 1,4 1,9l0 12c0,4 0,6 1,8 0,1 1,3 1,5l-10 0c0,-1 0,-2 -1,-3 0,-1 0,-1 0,-1 -2,2 -3,3 -5,4 -2,1 -4,1 -7,1 -4,0 -7,-1 -9,-3 -2,-2 -3,-5 -3,-9 0,-2 0,-4 1,-6 1,-1 3,-3 5,-4 1,-1 4,-1 8,-2 4,-1 8,-2 9,-3l0 -1c0,-2 0,-3 -1,-4 -1,-1 -3,-1 -5,-1 -2,0 -4,0 -5,1 -1,1 -2,2 -2,4zm13 8l0 0c-1,1 -3,1 -6,2 -3,0 -4,1 -5,2 -2,1 -2,2 -2,3 0,2 0,3 1,4 1,1 3,2 4,2 2,0 4,-1 6,-2 1,-1 2,-2 2,-4 0,-1 0,-2 0,-5l0 -2zm38 1l0 0 10 -1c1,4 2,7 4,8 2,2 5,3 8,3 3,0 6,-1 8,-2 1,-2 2,-4 2,-6 0,-1 0,-2 -1,-3 -1,-1 -2,-2 -4,-2 -1,-1 -4,-2 -8,-3 -6,-1 -10,-3 -12,-5 -3,-3 -5,-7 -5,-11 0,-3 1,-6 2,-8 2,-2 4,-4 7,-6 3,-1 6,-2 10,-2 7,0 12,2 15,5 3,3 5,7 5,12l-10 1c-1,-3 -2,-5 -3,-7 -2,-1 -4,-1 -7,-1 -3,0 -5,0 -7,2 -1,0 -2,2 -2,3 0,1 1,2 2,3 1,2 4,3 9,4 6,1 9,3 12,4 2,1 4,3 6,5 1,3 2,6 2,9 0,3 -1,6 -3,9 -1,3 -4,5 -7,6 -3,1 -7,2 -11,2 -7,0 -12,-2 -16,-5 -3,-3 -5,-8 -6,-14zm74 6l0 0 10 1c-1,4 -3,7 -6,9 -3,2 -7,3 -11,3 -6,0 -11,-2 -14,-7 -3,-3 -4,-8 -4,-13 0,-7 1,-12 5,-16 3,-3 7,-5 12,-5 6,0 10,2 14,5 3,4 5,10 4,18l-25 0c0,3 1,6 3,8 1,1 3,2 5,2 2,0 3,0 4,-1 1,-1 2,-2 3,-4zm0 -11l0 0c0,-3 0,-5 -2,-7 -1,-2 -3,-2 -5,-2 -2,0 -4,1 -6,2 -1,2 -2,4 -2,7l15 0zm18 -22l0 0 0 -10 10 0 0 10 -10 0zm10 5l0 0 -10 0 0 38c0,3 0,5 0,6 0,1 -1,1 -1,2 -1,0 -2,0 -3,0 0,0 -1,0 -1,0 0,0 -1,0 -1,0l-2 9c1,0 3,1 4,1 1,0 2,0 3,0 3,0 5,0 7,-2 2,-1 3,-2 4,-5 0,-2 0,-5 0,-10l0 -39zm19 13l0 0 -10 -2c1,-4 3,-7 6,-9 2,-1 6,-2 11,-2 4,0 8,0 10,1 2,1 4,3 5,5 1,1 1,4 1,9l0 12c0,4 0,6 0,8 1,1 1,3 2,5l-10 0c0,-1 0,-2 -1,-3 0,-1 0,-1 0,-1 -2,2 -4,3 -6,4 -2,1 -4,1 -6,1 -4,0 -7,-1 -9,-3 -2,-2 -4,-5 -4,-9 0,-2 1,-4 2,-6 1,-1 2,-3 4,-4 2,-1 5,-1 8,-2 5,-1 8,-2 10,-3l0 -1c0,-2 0,-3 -1,-4 -1,-1 -3,-1 -6,-1 -2,0 -3,0 -4,1 -1,1 -2,2 -2,4zm13 8l0 0c-1,1 -3,1 -6,2 -3,0 -5,1 -6,2 -1,1 -1,2 -1,3 0,2 0,3 1,4 1,1 2,2 4,2 2,0 4,-1 5,-2 2,-1 2,-2 3,-4 0,-1 0,-2 0,-5l0 -2zm30 -36l0 0 0 21c3,-4 7,-6 12,-6 2,0 4,0 6,1 2,1 3,2 4,3 1,2 2,3 2,5 1,2 1,4 1,8l0 23 -10 0 0 -21c0,-4 -1,-7 -1,-8 0,-1 -1,-2 -2,-2 -1,-1 -2,-1 -4,-1 -1,0 -3,0 -4,1 -2,1 -3,2 -3,4 -1,1 -1,4 -1,7l0 20 -10 0 0 -55 10 0zm52 15l0 0 0 9 -7 0 0 16c0,3 0,5 1,6 0,0 0,0 1,1 0,0 1,0 1,0 1,0 3,0 4,-1l1 9c-2,1 -5,1 -8,1 -2,0 -3,0 -5,-1 -1,-1 -2,-1 -3,-2 -1,-1 -1,-3 -1,-4 -1,-2 -1,-4 -1,-8l0 -17 -4 0 0 -9 4 0 0 -7 10 -7 0 14 7 0zm29 28l0 0 11 1c-2,4 -4,7 -7,9 -2,2 -6,3 -10,3 -7,0 -12,-2 -15,-7 -2,-3 -4,-8 -4,-13 0,-7 2,-12 5,-16 4,-3 8,-5 13,-5 6,0 10,2 13,5 4,4 5,10 5,18l-25 0c0,3 1,6 2,8 2,1 4,2 6,2 2,0 3,0 4,-1 1,-1 2,-2 2,-4zm1 -11l0 0c0,-3 -1,-5 -2,-7 -2,-2 -3,-2 -5,-2 -3,0 -4,1 -6,2 -1,2 -2,4 -2,7l15 0zm28 23l0 0 -10 0 0 -40 9 0 0 6c2,-3 3,-4 5,-5 1,-1 2,-1 4,-1 2,0 4,0 7,2l-4 9c-1,-1 -3,-2 -4,-2 -2,0 -3,0 -4,1 -1,1 -2,3 -2,5 -1,2 -1,6 -1,13l0 12zm26 -27l0 0 -9 -2c1,-4 3,-7 6,-9 2,-1 6,-2 11,-2 4,0 8,0 10,1 2,1 4,3 5,5 0,1 1,4 1,9l0 12c0,4 0,6 0,8 1,1 1,3 2,5l-10 0c0,-1 -1,-2 -1,-3 0,-1 0,-1 0,-1 -2,2 -4,3 -6,4 -2,1 -4,1 -6,1 -4,0 -7,-1 -9,-3 -3,-2 -4,-5 -4,-9 0,-2 1,-4 2,-6 1,-1 2,-3 4,-4 2,-1 5,-1 8,-2 5,-1 8,-2 10,-3l0 -1c0,-2 -1,-3 -1,-4 -1,-1 -3,-1 -6,-1 -2,0 -3,0 -4,1 -1,1 -2,2 -3,4zm14 8l0 0c-1,1 -3,1 -6,2 -3,0 -5,1 -6,2 -1,1 -2,2 -2,3 0,2 1,3 2,4 1,1 2,2 4,2 2,0 3,-1 5,-2 1,-1 2,-2 3,-4 0,-1 0,-2 0,-5l0 -2z"/>
  <path class="fil5" d="M1351 692l0 -118 39 0c14,0 23,1 28,2 7,2 12,5 17,11 4,6 7,14 7,23 0,8 -2,14 -4,19 -3,5 -6,8 -10,11 -4,3 -8,5 -13,6 -5,1 -14,2 -24,2l-16 0 0 44 -24 0zm24 -98l0 0 0 34 13 0c10,0 16,-1 19,-2 3,-2 6,-3 7,-6 2,-3 3,-6 3,-9 0,-5 -1,-8 -4,-11 -2,-3 -5,-4 -9,-5 -3,-1 -9,-1 -17,-1l-12 0zm98 98l0 0 0 -118 50 0c13,0 22,1 28,3 6,2 10,6 14,12 3,5 5,11 5,18 0,9 -3,16 -8,22 -5,6 -13,9 -23,11 5,3 9,6 12,10 4,3 8,10 14,19l14 23 -28 0 -17 -26c-6,-9 -10,-15 -13,-17 -2,-2 -4,-4 -7,-5 -2,-1 -6,-1 -12,-1l-5 0 0 49 -24 0zm24 -68l0 0 18 0c11,0 18,-1 21,-1 3,-1 5,-3 7,-5 1,-3 2,-6 2,-9 0,-4 -1,-8 -3,-10 -2,-2 -5,-4 -9,-5 -2,0 -8,0 -17,0l-19 0 0 30zm102 10l0 0c0,-12 2,-22 6,-31 3,-6 6,-11 11,-16 4,-5 10,-8 15,-10 7,-3 16,-5 26,-5 17,0 31,5 41,16 11,11 16,26 16,45 0,19 -5,34 -16,45 -10,11 -24,16 -41,16 -18,0 -32,-5 -42,-16 -10,-11 -16,-25 -16,-44zm25 -1l0 0c0,13 3,23 9,30 6,7 14,11 24,11 9,0 17,-4 23,-11 6,-6 9,-17 9,-30 0,-14 -3,-24 -9,-31 -5,-6 -13,-10 -23,-10 -10,0 -18,4 -24,10 -6,7 -9,17 -9,31zm175 16l0 0 0 -20 52 0 0 47c-5,5 -13,9 -22,13 -9,3 -19,5 -29,5 -12,0 -23,-2 -32,-8 -9,-5 -16,-12 -21,-22 -4,-10 -6,-20 -6,-31 0,-13 2,-24 7,-33 5,-10 13,-17 23,-22 7,-4 17,-6 28,-6 15,0 26,3 34,9 9,6 14,15 16,26l-24 4c-1,-6 -4,-10 -9,-14 -4,-3 -10,-5 -17,-5 -10,0 -19,4 -25,10 -6,7 -9,17 -9,30 0,14 3,24 9,31 7,7 15,11 25,11 5,0 10,-1 15,-3 5,-2 9,-5 13,-7l0 -15 -28 0zm86 43l0 0 0 -118 50 0c13,0 22,1 27,3 6,2 11,6 14,12 4,5 5,11 5,18 0,9 -2,16 -7,22 -6,6 -13,9 -24,11 5,3 10,6 13,10 3,3 8,10 14,19l14 23 -29 0 -17 -26c-6,-9 -10,-15 -12,-17 -2,-2 -5,-4 -7,-5 -3,-1 -7,-1 -12,-1l-5 0 0 49 -24 0zm24 -68l0 0 17 0c12,0 19,-1 22,-1 3,-1 5,-3 6,-5 2,-3 3,-6 3,-9 0,-4 -1,-8 -3,-10 -2,-2 -5,-4 -9,-5 -2,0 -8,0 -18,0l-18 0 0 30zm213 68l0 0 -26 0 -10 -27 -47 0 -10 27 -25 0 46 -118 25 0 47 118zm-43 -47l0 0 -17 -43 -16 43 33 0zm68 47l0 0 0 -118 35 0 22 80 20 -80 36 0 0 118 -22 0 0 -93 -23 93 -23 0 -23 -93 0 93 -22 0zm-795 147l0 0 0 -118 24 0 0 52 48 -52 32 0 -45 46 47 72 -31 0 -32 -55 -19 19 0 36 -24 0zm118 0l0 0 0 -118 87 0 0 20 -63 0 0 26 59 0 0 20 -59 0 0 32 66 0 0 20 -90 0zm111 0l0 0 0 -117 24 0 0 97 59 0 0 20 -83 0zm100 -118l0 0 23 0 0 64c0,10 1,17 1,20 1,5 4,9 8,11 3,3 9,5 15,5 7,0 12,-2 15,-4 4,-3 6,-6 6,-11 1,-4 1,-10 1,-20l0 -65 24 0 0 62c0,14 0,24 -2,30 -1,6 -3,11 -7,15 -3,4 -8,7 -14,10 -5,2 -13,3 -22,3 -11,0 -20,-1 -26,-4 -5,-2 -10,-6 -13,-10 -4,-4 -6,-8 -7,-13 -2,-7 -2,-17 -2,-30l0 -63zm225 118l0 0 -26 0 -10 -27 -48 0 -9 27 -26 0 46 -118 25 0 48 118zm-44 -47l0 0 -16 -43 -16 43 32 0zm56 47l0 0 0 -118 50 0c13,0 22,1 28,3 6,3 10,6 14,12 3,5 5,11 5,18 0,9 -3,16 -8,22 -5,6 -13,10 -23,11 5,3 9,6 12,10 4,4 8,10 14,19l14 23 -28 0 -17 -26c-6,-9 -10,-15 -13,-17 -2,-2 -4,-4 -7,-5 -2,-1 -6,-1 -12,-1l-5 0 0 49 -24 0zm24 -68l0 0 18 0c11,0 18,0 21,-1 3,-1 5,-3 7,-5 1,-3 2,-6 2,-9 0,-4 -1,-7 -3,-10 -2,-2 -5,-4 -9,-4 -2,-1 -8,-1 -17,-1l-19 0 0 30zm150 25l0 0 0 -20 51 0 0 47c-5,5 -12,9 -21,13 -10,3 -19,5 -29,5 -12,0 -23,-2 -32,-8 -9,-5 -16,-12 -21,-22 -5,-9 -7,-20 -7,-31 0,-13 3,-23 8,-33 5,-10 13,-17 22,-22 8,-4 17,-6 29,-6 14,0 26,3 34,9 8,6 13,15 16,26l-24 4c-2,-6 -5,-10 -9,-13 -5,-4 -11,-6 -17,-6 -11,0 -19,4 -25,10 -6,7 -9,17 -9,30 0,14 3,24 9,31 6,7 14,11 24,11 5,0 10,-1 15,-3 5,-2 10,-4 13,-7l0 -15 -27 0zm179 43l0 0 -25 0 -10 -27 -48 0 -9 27 -26 0 46 -118 25 0 47 118zm-43 -47l0 0 -17 -43 -15 43 32 0zm-877 194l0 0 0 -118 24 0 0 47 47 0 0 -47 24 0 0 118 -24 0 0 -51 -47 0 0 51 -24 0zm246 0l0 0 -26 0 -10 -27 -47 0 -10 27 -25 0 45 -118 26 0 47 118zm-44 -47l0 0 -16 -43 -16 43 32 0zm77 47l0 0 0 -118 50 0c12,0 22,1 27,4 6,2 11,5 14,11 3,5 5,11 5,18 0,9 -2,17 -8,22 -5,6 -12,10 -23,11 5,3 10,6 13,10 3,4 8,10 13,19l15 23 -29 0 -17 -26c-6,-9 -10,-14 -12,-17 -3,-2 -5,-4 -7,-5 -3,-1 -7,-1 -13,-1l-4 0 0 49 -24 0zm24 -68l0 0 17 0c12,0 19,0 22,-1 2,-1 5,-3 6,-5 2,-3 3,-6 3,-9 0,-4 -1,-7 -3,-10 -3,-2 -6,-4 -9,-4 -2,-1 -8,-1 -18,-1l-18 0 0 30zm221 68l0 0 -26 0 -10 -27 -47 0 -10 27 -25 0 46 -118 25 0 47 118zm-43 -47l0 0 -17 -43 -16 43 33 0zm76 47l0 0 0 -118 38 0c15,0 24,1 29,2 6,2 12,6 17,12 4,6 6,13 6,23 0,7 -1,13 -4,18 -2,5 -6,9 -10,11 -4,3 -8,5 -12,6 -6,1 -14,2 -24,2l-16 0 0 44 -24 0zm24 -98l0 0 0 34 13 0c9,0 16,-1 19,-2 3,-1 5,-3 7,-6 2,-2 3,-6 3,-9 0,-4 -1,-8 -4,-11 -2,-2 -6,-4 -9,-5 -3,0 -9,-1 -18,-1l-11 0zm200 98l0 0 -25 0 -11 -27 -47 0 -10 27 -25 0 46 -118 25 0 47 118zm-43 -47l0 0 -17 -43 -16 43 33 0zm76 47l0 0 0 -118 23 0 49 79 0 -79 22 0 0 118 -24 0 -48 -77 0 77 -22 0z"/>
 </g>
</svg>
